<svg xmlns="http://www.w3.org/2000/svg">
  <symbol id="pacman" viewBox="0 0 173 173">
    <path
      fill-rule="evenodd"
      d="M86.5,0 C134.272631,0 173,38.7273691 173,86.5 C173,91.7521936 172.531897,96.895056 171.635136,101.889143 L111.441718,101.889571 L150.620586,144.559575 C134.793881,162.027795 111.928288,173 86.5,173 C38.7273691,173 0,134.272631 0,86.5 C0,38.7273691 38.7273691,0 86.5,0 Z M127.5,44 C118.939586,44 112,50.9395864 112,59.5 C112,68.0604136 118.939586,75 127.5,75 C136.060414,75 143,68.0604136 143,59.5 C143,50.9395864 136.060414,44 127.5,44 Z"
    />
  </symbol>
</svg>
